<svg width="94" height="36" viewBox="0 0 94 36" fill="none" xmlns="http://www.w3.org/2000/svg">
<path d="M0.999992 5.15718L1.13663 6.3582L3.89802 6.88436L8.17522 8.62212L12.7091 11.0008L15.8925 12.7687L18.9467 13.8309L24.782 14.1826L22.885 16.7213L21.5662 20.6128H15.6501L12.1452 23.5055L8.28694 25.8547L8.25448 26.9788L8.32619 27.791L9.46004 27.6461L10.5456 26.898L14.9926 23.8694L24.3148 24.1985L28.2704 21.0619L30.3622 20.0979L33.6716 16.6496L35.8895 15.8064L38.3104 15.9589L41.0748 16.9395L48.5777 16.676L50.9556 15.0372L51.4681 13.3085V16.0472L52.2396 17.1795L60.0384 14.3948L60.9548 14.0301L63.2942 14.5374L65.7537 15.5014L67.0951 16.1672L68.3482 15.4448L67.625 14.0943L61.684 11.6824L57.1109 12.1165L56.4119 11.9232L58.5331 8.76404L58.823 8.18579L59.9319 7.43845L60.2701 8.2575L61.7165 8.30582L63.2844 7.73965L63.6218 8.07331L64.3933 8.20089L65.7438 6.79981L66.0647 6.01473L64.6508 4.3434L64.5866 3.50699L63.5577 2.47883L60.9216 1.96399L59.6987 1H58.9921L58.8638 1.70658L56.8694 1.77074L55.0055 2.92874L49.5235 3.51529L44.5564 6.2646L39.9576 7.68681L37.0633 8.77989L32.4978 9.74539L27.6921 9.85032L22.9975 10.9041L19.1219 11.1601L16.1635 10.3878L9.55742 7.11007L5.61765 5.69315L2.80569 5.08471L0.999992 5.15718Z" fill="#EE5514"/>
<path fill-rule="evenodd" clip-rule="evenodd" d="M59.9645 0.233398H58.3522L58.2201 0.960286L56.6393 1.01114L54.7498 2.18513L49.2879 2.76953L44.2543 5.55559L39.7087 6.96136L36.8473 8.04201L32.4093 8.98054L27.5989 9.08557L22.8876 10.1431L19.1953 10.3869L16.4335 9.666L9.85853 6.40369L5.82938 4.95461L2.87246 4.31481L0.145027 4.42427L0.438705 7.00571L3.67987 7.62328L7.8521 9.31839L12.3449 11.6755L15.5781 13.4711L18.7949 14.5898L23.3171 14.8624L22.198 16.36L21.0165 19.8462H15.3746L11.6996 22.8793L7.53264 25.4165L7.48687 27.0015L7.63264 28.6526L9.74186 28.383L10.9771 27.5317L10.9806 27.5293L15.2166 24.6445L24.5699 24.9747L28.6747 21.7198L30.8148 20.7335L34.1053 17.305L36.0069 16.582L38.1552 16.7173L40.956 17.7108L48.8284 17.4344L50.7015 16.1434V16.2836L51.9396 18.1008L60.3091 15.1122L61.0209 14.829L63.0717 15.2737L65.4428 16.203L67.1222 17.0366L69.3748 15.7379L68.1701 13.4882L61.7985 10.9015L57.7643 11.2844L59.1967 9.1511L59.4183 8.7092L59.5817 8.59903L59.7503 9.00727L61.8382 9.07701L63.0895 8.62517L63.2562 8.78996L64.6657 9.02304L66.3979 7.22602L66.9502 5.8745L65.3962 4.03759L65.3293 3.16537L63.9342 1.77127L61.2506 1.24716L59.9645 0.233398ZM60.79 7.50784L60.2822 6.27796L58.2278 7.66248L57.8696 8.37707L55.1826 12.3788L57.0428 12.8931L61.5696 12.4634L67.08 14.7005L67.3216 15.1518L67.068 15.298L66.0646 14.7999L63.5168 13.8013L60.8887 13.2314L59.7677 13.6774L52.5397 16.2584L52.2348 15.8109V8.02604L50.2975 14.5596L48.327 15.9178L41.1937 16.1682L38.4656 15.2005L35.7721 15.0309L33.2379 15.9944L29.9095 19.4625L27.8661 20.4042L24.0597 23.4224L14.7687 23.0944L10.1105 26.2668L9.17824 26.9093L9.0229 26.9291L9.04126 26.2931L12.5908 24.1318L15.9257 21.3795H22.1159L23.572 17.0828L26.247 13.503L19.0986 13.072L16.2068 12.0664L13.0733 10.3262L8.49837 7.92594L4.15393 6.16087L5.40595 6.43178L9.25633 7.81656L15.8934 11.1097L19.0484 11.9333L23.1073 11.6653L27.7854 10.6152L32.5862 10.5103L37.2793 9.51786L40.2065 8.41235L44.8584 6.9737L49.7592 4.26115L55.2613 3.67245L57.0994 2.53044L59.5074 2.45296L59.6071 1.90406L60.5927 2.68093L63.1812 3.18648L63.8439 3.8487L63.9053 4.64931L65.1792 6.15505L65.0898 6.3737L64.121 7.37883L63.9875 7.35676L63.4793 6.85423L61.5948 7.53472L60.79 7.50784ZM3.83873 6.09267L2.61577 5.85964L2.73895 5.8547L3.83873 6.09267Z" fill="#EE5514"/>
<path d="M37.5781 21.5361H36.6321C36.6174 22.4747 36.6027 23.4207 36.5881 24.3741C36.5881 25.3274 36.5881 26.2807 36.5881 27.2341V28.2021H37.6661C38.8247 28.2021 39.6681 27.8867 40.1961 27.2561C40.7241 26.6254 40.9881 25.7967 40.9881 24.7701C40.9881 23.7287 40.7021 22.9294 40.1301 22.3721C39.5727 21.8147 38.7221 21.5361 37.5781 21.5361ZM31.8581 21.4481V20.4141H37.7981C39.8661 20.4141 41.3767 20.8174 42.3301 21.6241C43.2981 22.4161 43.7821 23.4647 43.7821 24.7701C43.7821 25.5914 43.5767 26.3541 43.1661 27.0581C42.7701 27.7474 42.1101 28.2974 41.1861 28.7081C40.2767 29.1187 39.0447 29.3241 37.4901 29.3241H36.5881C36.5881 30.0281 36.5881 30.7467 36.5881 31.4801C36.6027 32.2134 36.6174 32.9687 36.6321 33.7461L38.6341 33.9661V35.0001H31.8581V33.9661L33.7061 33.7681C33.7354 32.8587 33.7501 31.9347 33.7501 30.9961C33.7501 30.0574 33.7501 29.1187 33.7501 28.1801V27.2341C33.7501 26.3101 33.7501 25.3861 33.7501 24.4621C33.7501 23.5234 33.7354 22.5847 33.7061 21.6461L31.8581 21.4481Z" fill="#1A0A03"/>
<path d="M53.9457 21.4481V20.4141H59.2257V21.4481L57.3557 21.6681V28.8841C57.3557 30.4241 57.1211 31.6707 56.6517 32.6241C56.1971 33.5774 55.5591 34.2741 54.7377 34.7141C53.9164 35.1541 52.9484 35.3741 51.8337 35.3741C50.7631 35.3741 49.8171 35.1761 48.9957 34.7801C48.1744 34.3841 47.5291 33.7534 47.0597 32.8881C46.5904 32.0227 46.3557 30.8934 46.3557 29.5001V27.1021C46.3557 26.1927 46.3557 25.2834 46.3557 24.3741C46.3557 23.4501 46.3411 22.5334 46.3117 21.6241L44.5957 21.4481V20.4141H51.2837V21.4481L49.2597 21.6681C49.2451 22.5627 49.2304 23.4647 49.2157 24.3741C49.2157 25.2834 49.2157 26.1927 49.2157 27.1021V28.8181C49.2157 30.0061 49.3477 30.9521 49.6117 31.6561C49.8757 32.3454 50.2571 32.8441 50.7557 33.1521C51.2691 33.4454 51.8851 33.5921 52.6037 33.5921C53.7331 33.5921 54.5911 33.2181 55.1777 32.4701C55.7791 31.7074 56.0797 30.4167 56.0797 28.5981V21.6901L53.9457 21.4481Z" fill="#1A0A03"/>
<path d="M60.2553 35.0001V33.9661L62.3013 33.6801V21.6901L60.3433 21.4481V20.4141H65.2492L69.5392 31.3481L73.5872 20.4141H78.4932V21.4481L76.6892 21.6461C76.6746 22.5554 76.6599 23.4794 76.6452 24.4181C76.6452 25.3421 76.6452 26.2807 76.6452 27.2341V28.1801C76.6452 29.1187 76.6452 30.0574 76.6452 30.9961C76.6599 31.9201 76.6746 32.8441 76.6892 33.7681L78.5373 33.9661V35.0001H72.0472V33.9661L73.7852 33.7461C73.8146 32.8367 73.8293 31.9347 73.8293 31.0401C73.8293 30.1307 73.8293 29.2581 73.8293 28.4221L73.8512 23.1861L69.4953 35.0001H68.0872L63.4672 23.1861L63.5772 27.4981V33.6801L65.4032 33.9661V35.0001H60.2553Z" fill="#1A0A03"/>
<path d="M86.0044 23.2521L83.9804 29.3461H88.0064L86.0044 23.2521ZM79.5584 35.0001V33.9661L81.3624 33.7021L85.9604 20.326H87.7644L92.3624 33.8121L93.8584 33.9881V35.0001H87.5004V33.9881L89.4364 33.7461L88.3804 30.4901H83.5844L82.5284 33.6801L84.4424 33.9661V35.0001H79.5584Z" fill="#1A0A03"/>
</svg>
